HIERARCHY
ROOT Hips
{
	OFFSET -0.179506 -22.333345 2.821913
	CHANNELS 6 Xposition Yposition Zposition Zrotation Yrotation Xrotation 
	JOINT LeftUpLeg
	{
		OFFSET 6.951974 -9.140623 -0.681533
		CHANNELS 3 Zrotation Yrotation Xrotation
		JOINT LeftLeg
		{
			OFFSET 3.427654 -37.519855 -0.449580
			CHANNELS 3 Zrotation Yrotation Xrotation
			JOINT LeftFoot
			{
				OFFSET -1.359570 -39.796059 -4.369333
				CHANNELS 3 Zrotation Yrotation Xrotation
				JOINT LeftToe
				{
					OFFSET 2.635814 -5.579078 11.928840
					CHANNELS 3 Zrotation Yrotation Xrotation
					End Site
					{
						OFFSET 0.000000 0.000000 0.000000
					}
				}
			}
		}
	}
	JOINT RightUpLeg
	{
		OFFSET -6.767048 -9.052170 -0.431982
		CHANNELS 3 Zrotation Yrotation Xrotation
		JOINT RightLeg
		{
			OFFSET -3.829005 -38.256897 -0.885003
			CHANNELS 3 Zrotation Yrotation Xrotation
			JOINT RightFoot
			{
				OFFSET 1.577377 -39.841461 -4.231180
				CHANNELS 3 Zrotation Yrotation Xrotation
				JOINT RightToe
				{
					OFFSET -2.537174 -4.814398 12.334795
					CHANNELS 3 Zrotation Yrotation Xrotation
					End Site
					{
						OFFSET 0.000000 0.000000 0.000000
					}
				}
			}
		}
	}
	JOINT Spine
	{
		OFFSET -0.253288 10.896323 -2.669631
		CHANNELS 3 Zrotation Yrotation Xrotation
		JOINT Spine1
		{
			OFFSET 0.548704 13.518043 0.109247
			CHANNELS 3 Zrotation Yrotation Xrotation
			JOINT Spine2
			{
				OFFSET 0.145701 5.292222 2.542457
				CHANNELS 3 Zrotation Yrotation Xrotation
				JOINT Neck
				{
					OFFSET -0.277840 21.387037 -4.285703
					CHANNELS 3 Zrotation Yrotation Xrotation
					JOINT Head
					{
						OFFSET 0.515184 6.496960 5.134897
						CHANNELS 3 Zrotation Yrotation Xrotation
						End Site
						{
							OFFSET 0.000000 0.000000 0.000000
						}
					}
				}
				JOINT LeftShoulder
				{
					OFFSET 7.884473 12.174932 -3.408961
					CHANNELS 3 Zrotation Yrotation Xrotation
					JOINT LeftArm
					{
						OFFSET 9.097692 3.046888 -0.886815
						CHANNELS 3 Zrotation Yrotation Xrotation
						JOINT LeftForeArm
						{
							OFFSET 25.961220 -1.277207 -2.745643
							CHANNELS 3 Zrotation Yrotation Xrotation
							JOINT LeftHand
							{
								OFFSET 24.923361 0.898606 -0.117091
								CHANNELS 3 Zrotation Yrotation Xrotation
								End Site
								{
									OFFSET 0.000000 0.000000 0.000000
								}
							}
						}
					}
				}
				JOINT RightShoulder
				{
					OFFSET -8.175920 11.883285 -3.861528
					CHANNELS 3 Zrotation Yrotation Xrotation
					JOINT RightArm
					{
						OFFSET -9.601238 3.255117 -0.914307
						CHANNELS 3 Zrotation Yrotation Xrotation
						JOINT RightForeArm
						{
							OFFSET -25.374195 -1.332924 -2.140099
							CHANNELS 3 Zrotation Yrotation Xrotation
							JOINT RightHand
							{
								OFFSET -25.529810 0.777228 -0.555919
								CHANNELS 3 Zrotation Yrotation Xrotation
								End Site
								{
									OFFSET 0.000000 0.000000 0.000000
								}
							}
						}
					}
				}
			}
		}
	}
}
MOTION
Frames: 10
Frame Time: 0.033333
-0.179506 109.115295 2.821913 178.858620 10.560373 -179.581994 -2.115956 0.634562 2.357761 -3.256543 -5.976569 9.019809 0.675199 10.046667 -14.011081 3.442392 1.266369 1.123849 0.954295 -1.903986 0.628471 -0.447638 -0.536340 14.257255 1.372875 -9.200876 -16.207975 3.296902 -1.894070 0.483897 -0.850309 2.661585 1.361588 1.545540 -3.044194 6.767613 -2.590731 0.251466 -6.347372 -2.477055 1.495746 1.143742 2.437290 2.197162 -2.700956 -24.045334 1.378064 4.036763 -34.686489 2.560918 11.770280 -9.160580 -26.665078 27.271854 -9.200121 -7.788501 18.393814 17.255165 4.208325 3.582532 41.424663 -6.603832 16.532099 13.433521 40.374337 35.654682 10.235354 7.777874 12.318734 
-0.168779 109.106583 2.707262 178.681285 10.217621 -179.476846 -2.245802 0.622132 2.465042 -3.240556 -6.065898 8.652927 0.676352 9.841976 -13.881920 3.432842 1.271451 1.156443 0.850179 -1.921847 0.560639 -0.495209 -0.510207 14.324409 1.343291 -9.459647 -16.265085 3.248639 -1.889213 0.493364 -0.914372 2.658733 1.280616 1.556089 -3.080083 6.929084 -2.648063 0.223451 -6.484978 -2.543796 1.370892 1.120928 2.426453 2.230327 -2.680524 -24.086838 1.370556 4.066158 -34.720467 2.504321 11.928844 -8.976906 -26.722508 27.180069 -9.363955 -7.770451 18.668197 17.295323 4.208468 3.680857 41.418176 -6.751790 16.682413 13.440168 40.248188 35.820692 10.705563 7.659510 12.639029 
-0.158135 109.098816 2.652607 178.537739 9.853559 -179.404774 -2.336852 0.628009 2.478787 -3.219060 -6.090039 8.463190 0.683360 9.611924 -13.795778 3.444354 1.274329 1.168026 0.767579 -1.926220 0.423185 -0.494533 -0.520969 14.532843 1.290794 -9.717026 -16.327286 3.217013 -1.889966 0.517594 -0.936655 2.640658 1.236913 1.545848 -3.124627 7.001825 -2.679167 0.196162 -6.576449 -2.604473 1.215228 1.101800 2.434678 2.288052 -2.611193 -24.165253 1.262001 4.124458 -34.679624 2.481373 12.038084 -8.918499 -26.813955 27.145270 -9.447438 -7.792015 18.837823 17.332617 4.282109 3.774326 41.293542 -6.929673 16.793364 13.758934 40.203098 36.266524 11.118129 7.600537 12.927984 
-0.153713 109.092285 2.627667 178.382357 9.412838 -179.324011 -2.445501 0.572052 2.446463 -3.182921 -6.132200 8.297015 0.675669 9.378023 -13.719026 3.449094 1.276794 1.179203 0.695590 -1.913095 0.264456 -0.503541 -0.515322 14.739868 1.246739 -10.034817 -16.397118 3.169702 -1.891398 0.538569 -0.973125 2.619067 1.205313 1.538958 -3.197510 7.060578 -2.700047 0.161246 -6.649229 -2.646928 1.055177 1.050802 2.486127 2.355488 -2.584801 -24.232390 1.182126 4.154234 -34.667056 2.404902 12.141900 -8.819199 -27.000251 26.939698 -9.587140 -7.805099 18.845702 17.396157 4.321550 3.857566 41.163792 -7.084941 16.870384 13.985423 40.153318 36.516919 11.630718 7.505883 13.134289 
-0.147326 109.086227 2.581581 178.281213 9.078198 -179.229957 -2.523814 0.503659 2.415693 -3.144991 -6.243621 8.160809 0.668440 9.260113 -13.666369 3.435585 1.274574 1.180305 0.659347 -1.903149 0.120822 -0.507936 -0.498957 14.924127 1.224463 -10.268801 -16.454830 3.136196 -1.879467 0.543239 -1.001752 2.605408 1.185615 1.553813 -3.259079 7.039917 -2.707386 0.142165 -6.686950 -2.661584 0.914372 1.010564 2.562907 2.397836 -2.584469 -24.244001 1.193405 4.183739 -34.656773 2.353250 12.274295 -8.847267 -27.332655 26.845492 -9.611225 -7.878198 18.724703 17.452363 4.286665 3.916142 41.046204 -7.199980 16.929165 14.146525 40.061801 36.708146 12.012630 7.385808 13.303051 
-0.181020 109.079895 2.577661 178.219059 8.787683 -179.195129 -2.591323 0.428015 2.399740 -3.121799 -6.376099 8.072525 0.686763 9.207516 -13.647200 3.440109 1.261959 1.179461 0.639285 -1.866011 0.013847 -0.507214 -0.416465 15.109660 1.181027 -10.507273 -16.502184 3.120987 -1.871847 0.544243 -1.044236 2.581447 1.177575 1.582434 -3.316180 7.031838 -2.716865 0.119369 -6.714365 -2.641254 0.802870 0.970461 2.615252 2.411674 -2.601151 -24.245660 1.219705 4.174460 -34.681462 2.246294 12.386286 -8.854612 -27.716322 26.723899 -9.573901 -7.939888 18.585080 17.517841 4.224441 3.915031 40.925425 -7.269128 16.978106 14.176039 39.964711 36.751633 12.319208 7.256747 13.402958 
-0.230471 109.072998 2.558968 178.181445 8.527234 -179.111148 -2.640625 0.330280 2.356332 -3.125714 -6.521691 7.963213 0.751045 9.197577 -13.604666 3.421968 1.255892 1.170674 0.619404 -1.822480 -0.078509 -0.477893 -0.295586 15.187196 1.144897 -10.748120 -16.527660 3.109885 -1.863012 0.526189 -1.096757 2.555446 1.167552 1.617759 -3.382686 6.999819 -2.724217 0.096331 -6.727306 -2.600006 0.723212 0.912709 2.713346 2.486524 -2.660379 -24.226471 1.236344 4.157557 -34.729531 2.143194 12.489521 -8.851882 -28.165952 26.563815 -9.444724 -8.041932 18.490862 17.549428 4.156953 3.904380 40.839654 -7.353359 17.010007 14.170425 39.873135 36.798921 12.611483 7.127519 13.524263 
-0.290882 109.065506 2.516042 178.190030 8.431508 -179.056831 -2.662527 0.291703 2.313038 -3.151289 -6.539097 7.971126 0.803505 9.214596 -13.605032 3.429620 1.243966 1.162247 0.601676 -1.796096 -0.149968 -0.449025 -0.187567 15.284152 1.123063 -10.868200 -16.518075 3.102416 -1.850781 0.510346 -1.148883 2.539505 1.174994 1.670443 -3.451097 6.958757 -2.739594 0.083232 -6.730519 -2.549268 0.734371 0.860340 2.798744 2.590930 -2.644737 -24.199440 1.265035 4.161824 -34.782449 2.038277 12.541145 -8.872427 -28.603040 26.454969 -9.287347 -8.140407 18.439477 17.551206 4.074986 3.886528 40.732008 -7.403118 17.049433 14.246282 39.877164 36.899220 12.697192 7.123739 13.537237 
-0.329257 109.057800 2.482512 178.165881 8.382298 -178.977521 -2.707037 0.250734 2.239745 -3.180918 -6.535390 7.968506 0.858705 9.241245 -13.581413 3.421927 1.227026 1.167377 0.550929 -1.765591 -0.213236 -0.407232 -0.094054 15.286745 1.145766 -10.971932 -16.543346 3.065519 -1.830604 0.507652 -1.183575 2.531969 1.129435 1.706025 -3.513699 6.981802 -2.760001 0.082626 -6.768268 -2.514486 0.749272 0.853845 2.882703 2.690022 -2.635827 -24.206055 1.252032 4.138142 -34.796670 1.907503 12.568912 -8.817639 -29.005279 26.268097 -9.063556 -8.319829 18.479145 17.590712 3.974935 3.885145 40.602011 -7.433059 17.084866 14.327688 39.958844 37.071005 12.714508 7.220752 13.610195 
-0.360778 109.049988 2.500855 178.180391 8.478665 -178.927964 -2.741776 0.207741 2.128285 -3.187631 -6.491548 8.057764 0.911171 9.349619 -13.613528 3.419666 1.216100 1.171573 0.516049 -1.759541 -0.266472 -0.358315 -0.016277 15.241285 1.174039 -10.957494 -16.575714 3.012879 -1.818567 0.520179 -1.185877 2.541544 1.092728 1.737972 -3.566380 7.016661 -2.777603 0.084004 -6.807438 -2.491442 0.837936 0.871876 2.943362 2.810838 -2.598072 -24.273528 1.206430 4.129174 -34.749253 1.774039 12.516099 -8.697289 -29.349614 26.033185 -9.003603 -8.494527 18.608258 17.641643 3.919522 3.879771 40.483959 -7.432662 17.081709 14.336706 40.156850 37.235906 12.780414 7.363115 13.672512 
